<!-- Generated by IcoMoon.io -->
<svg version="1.1" xmlns="http://www.w3.org/2000/svg" width="945" height="1024" viewBox="0 0 945 1024">
<title></title>
<g id="icomoon-ignore">
</g>
<path d="M519.010 474.431l157.68-157.561c5.317-6.202 8.094-14.18 7.778-22.339s-3.702-15.899-9.48-21.673c-5.778-5.774-13.521-9.156-21.689-9.471-8.164-0.315-16.148 2.46-22.355 7.771l-157.68 155.94-158.653-158.534c-6.207-5.311-14.19-8.086-22.356-7.771s-15.911 3.697-21.69 9.471c-5.778 5.774-9.163 13.514-9.479 21.673s2.462 16.137 7.777 22.339l158.328 160.155-155.083 153.017c-3.396 2.907-6.155 6.483-8.102 10.508-1.947 4.021-3.042 8.401-3.214 12.867s0.58 8.917 2.211 13.076c1.631 4.163 4.105 7.94 7.267 11.099s6.944 5.632 11.107 7.263c4.163 1.631 8.619 2.383 13.087 2.209s8.852-1.264 12.878-3.21c4.025-1.95 7.604-4.703 10.513-8.097l154.759-154.644 153.789 153.671c6.207 5.309 14.19 8.086 22.355 7.771s15.911-3.698 21.689-9.472c5.778-5.774 9.165-13.513 9.48-21.673 0.315-8.157-2.462-16.136-7.778-22.339l-153.139-152.044z"></path>
</svg>
