<svg aria-hidden="true" style="position: absolute; width: 0; height: 0; overflow: hidden;" version="1.1" xmlns="http://www.w3.org/2000/svg" xmlns:xlink="http://www.w3.org/1999/xlink">
<defs>
<symbol id="icon-right" viewBox="0 0 18 32">
<path d="M17.653 15.035l-14.861-14.16c-0.248-0.236-0.577-0.368-0.92-0.368s-0.672 0.132-0.92 0.368l-0.016 0.016c-0.121 0.115-0.217 0.253-0.282 0.405s-0.099 0.318-0.099 0.484c0 0.166 0.034 0.331 0.099 0.484s0.162 0.291 0.282 0.405l13.995 13.333-13.995 13.328c-0.121 0.115-0.217 0.252-0.282 0.405s-0.099 0.317-0.099 0.484 0.034 0.331 0.099 0.484c0.066 0.153 0.162 0.291 0.282 0.405l0.016 0.016c0.248 0.236 0.577 0.368 0.92 0.368s0.672-0.132 0.92-0.368l14.861-14.16c0.131-0.125 0.235-0.274 0.306-0.44s0.108-0.345 0.108-0.525c0-0.181-0.037-0.359-0.108-0.525s-0.175-0.316-0.306-0.44z"></path>
</symbol>
<symbol id="icon-left" viewBox="0 0 18 32">
<path d="M0.48 16.965l14.861 14.16c0.248 0.236 0.577 0.368 0.92 0.368s0.672-0.132 0.92-0.368l0.016-0.016c0.121-0.115 0.217-0.252 0.282-0.405s0.1-0.317 0.1-0.484-0.034-0.331-0.1-0.484c-0.066-0.153-0.162-0.291-0.282-0.405l-13.995-13.333 13.995-13.328c0.121-0.115 0.217-0.253 0.282-0.405s0.1-0.318 0.1-0.484-0.034-0.331-0.1-0.484c-0.066-0.153-0.162-0.291-0.282-0.405l-0.016-0.016c-0.248-0.236-0.578-0.368-0.92-0.368s-0.672 0.132-0.92 0.368l-14.861 14.16c-0.131 0.125-0.235 0.274-0.306 0.44s-0.108 0.345-0.108 0.525c0 0.181 0.037 0.359 0.108 0.525s0.175 0.316 0.306 0.44z"></path>
</symbol>
</defs>
</svg>
